<svg width="255" height="235" viewBox="0 0 255 235" fill="none" xmlns="http://www.w3.org/2000/svg">
<path d="M0 96C0 62.3969 0 45.5953 6.53961 32.7606C12.292 21.4708 21.4708 12.292 32.7606 6.53961C45.5953 0 62.3968 0 96 0H159C192.603 0 209.405 0 222.239 6.53961C233.529 12.292 242.708 21.4708 248.46 32.7606C255 45.5953 255 62.3969 255 96V139C255 172.603 255 189.405 248.46 202.239C242.708 213.529 233.529 222.708 222.239 228.46C209.405 235 192.603 235 159 235H96C62.3968 235 45.5953 235 32.7606 228.46C21.4708 222.708 12.292 213.529 6.53961 202.239C0 189.405 0 172.603 0 139V96Z" fill="black"/>
<path fill-rule="evenodd" clip-rule="evenodd" d="M128.121 31C151.593 31 170.621 61.8924 170.621 100C170.621 101.344 170.593 102.679 170.547 104.004C171.718 104.626 172.888 105.271 174.052 105.943C207.055 124.997 224.294 156.923 212.558 177.25C200.822 197.577 164.554 198.609 131.552 179.556C130.388 178.883 129.245 178.192 128.121 177.489C126.996 178.192 125.853 178.883 124.689 179.556C91.6869 198.609 55.4193 197.577 43.6832 177.25C31.9472 156.923 49.1869 124.997 82.1891 105.943C83.3533 105.271 84.5228 104.626 85.694 104.004C85.6473 102.679 85.6207 101.344 85.6207 100C85.6207 61.8924 104.649 31.0001 128.121 31ZM88.1246 123.381C75.6511 131.217 66.759 140.856 61.9977 149.673C56.6942 159.494 57.6911 165.512 59.2721 168.25C60.8533 170.988 65.5659 174.86 76.7233 175.178C86.7398 175.463 99.5319 172.58 112.555 165.696C109.652 163.035 106.987 160.278 104.582 157.457C101.708 154.348 99.0822 150.686 96.7594 146.564C94.3653 142.506 92.5158 138.415 91.2662 134.386C90.0291 130.898 88.9758 127.218 88.1246 123.381ZM168.116 123.381C167.265 127.218 166.211 130.898 164.974 134.386C163.711 138.46 161.835 142.598 159.402 146.702C157.098 150.767 154.5 154.383 151.659 157.457C149.253 160.278 146.588 163.035 143.685 165.696C156.709 172.581 169.501 175.463 179.518 175.178C190.675 174.86 195.388 170.988 196.969 168.25C198.55 165.512 199.547 159.494 194.244 149.672C189.482 140.855 180.59 131.217 168.116 123.381ZM128.121 110.307C124.999 110.349 121.641 110.684 118.116 111.332C112.522 112.731 109.771 115.283 108.635 117.25C107.5 119.217 106.666 122.877 108.253 128.424C109.457 131.81 110.852 134.893 112.381 137.623C113.976 140.298 115.94 143.029 118.256 145.749C122.265 149.893 125.85 151 128.121 151C130.392 151 133.976 149.893 137.984 145.749C140.301 143.029 142.265 140.298 143.86 137.623C145.391 134.89 146.786 131.804 147.992 128.414C149.575 122.873 148.741 119.216 147.606 117.25C146.471 115.283 143.72 112.732 138.128 111.332C134.602 110.684 131.243 110.349 128.121 110.307ZM128.121 49C124.959 49 119.249 51.1455 113.395 60.6494C108.14 69.1815 104.24 81.7012 103.69 96.4219C107.442 95.2393 111.159 94.3102 114.8 93.6377C118.93 92.7027 123.415 92.2593 128.146 92.3076C132.859 92.2629 137.327 92.7059 141.442 93.6377C145.083 94.3101 148.799 95.2386 152.55 96.4209C152 81.7006 148.101 69.1813 142.846 60.6494C136.992 51.1454 131.283 49 128.121 49Z" fill="white"/>
</svg>
