<svg width="177" height="163" viewBox="0 0 177 163" fill="none" xmlns="http://www.w3.org/2000/svg">
<path d="M88.1197 0C111.592 0 130.62 30.8924 130.62 69C130.62 70.344 130.592 71.6789 130.546 73.0039C131.717 73.6263 132.888 74.2709 134.052 74.9434C167.054 93.997 184.293 125.922 172.557 146.249C160.821 166.576 124.554 167.609 91.5524 148.556C90.3883 147.884 89.2449 147.193 88.1207 146.49C86.9963 147.193 85.8534 147.884 84.6891 148.557C51.6871 167.61 15.4195 166.577 3.68322 146.25C-8.05283 125.923 9.18688 93.9982 42.1891 74.9443C43.3531 74.2723 44.5221 73.627 45.693 73.0049C45.6463 71.6796 45.6197 70.3443 45.6197 69C45.6197 30.8926 64.6478 0.000328059 88.1197 0ZM48.1236 92.3809C35.6502 100.217 26.759 109.856 21.9977 118.673C16.6942 128.494 17.6902 134.511 19.2711 137.25C20.8523 139.988 25.566 143.86 36.7233 144.178C46.7398 144.463 59.532 141.58 72.5553 134.696C69.656 132.039 66.9941 129.286 64.5914 126.469C61.7027 123.345 59.0634 119.663 56.7311 115.517C54.3547 111.48 52.5176 107.413 51.2731 103.406C50.0327 99.9126 48.9765 96.2259 48.1236 92.3809ZM128.115 92.3799C127.264 96.2163 126.211 99.8951 124.974 103.382C123.711 107.457 121.835 111.597 119.401 115.702C117.097 119.767 114.499 123.383 111.658 126.457C109.253 129.278 106.588 132.035 103.685 134.696C116.709 141.58 129.502 144.463 139.518 144.178C150.676 143.86 155.388 139.987 156.969 137.249C158.55 134.51 159.547 128.493 154.244 118.672C149.482 109.854 140.589 100.217 128.115 92.3799ZM88.1197 79.3066C84.9977 79.3486 81.6397 79.6838 78.1149 80.332C72.5216 81.7315 69.7701 84.2823 68.6344 86.249C67.4983 88.2168 66.6644 91.878 68.2526 97.4268C69.4474 100.785 70.8283 103.844 72.3434 106.558C73.9449 109.253 75.9205 112.007 78.2555 114.749C82.2641 118.893 85.8488 120 88.1197 120C90.3926 120 93.981 118.891 97.9938 114.738C100.294 112.036 102.246 109.322 103.835 106.664C105.375 103.921 106.779 100.821 107.991 97.4131C109.573 91.8723 108.741 88.2162 107.606 86.25C106.47 84.2819 103.716 81.7279 98.1139 80.3291C94.5929 79.6822 91.2385 79.3485 88.1197 79.3066ZM88.1197 18C84.9576 18.0002 79.2479 20.1458 73.3942 29.6494C68.139 38.1815 64.239 50.7012 63.6891 65.4219C67.4418 64.2391 71.159 63.3102 74.8014 62.6377C78.9305 61.7029 83.4153 61.2593 88.1461 61.3076C92.8542 61.263 97.318 61.7059 101.429 62.6357C105.074 63.3083 108.794 64.2374 112.549 65.4209C111.999 50.7006 108.1 38.1813 102.845 29.6494C96.9913 20.1455 91.2818 18 88.1197 18Z" fill="white"/>
</svg>
