<svg width="177" height="163" viewBox="0 0 177 163" fill="none" xmlns="http://www.w3.org/2000/svg">
<path d="M88.1207 0C111.593 0 130.621 30.8924 130.621 69C130.621 70.344 130.593 71.6789 130.546 73.0039C131.718 73.6262 132.888 74.271 134.052 74.9434C167.055 93.9972 184.294 125.923 172.558 146.25C160.822 166.577 124.555 167.609 91.5524 148.556C90.3882 147.884 89.245 147.193 88.1207 146.49C86.9964 147.193 85.8532 147.884 84.6891 148.556C51.6869 167.609 15.4193 166.577 3.68322 146.25C-8.05283 125.923 9.18688 93.9972 42.1891 74.9434C43.3533 74.2712 44.5228 73.6261 45.694 73.0039C45.6473 71.6789 45.6207 70.344 45.6207 69C45.6207 30.8924 64.6486 0 88.1207 0ZM48.1246 92.3809C35.6511 100.217 26.759 109.856 21.9977 118.673C16.6942 128.494 17.6911 134.512 19.2721 137.25C20.8533 139.988 25.5659 143.86 36.7233 144.178C46.7398 144.463 59.5319 141.58 72.5553 134.696C69.652 132.035 66.987 129.278 64.5817 126.457C61.7266 123.368 59.1162 119.732 56.8043 115.643C54.3879 111.558 52.5237 107.441 51.2662 103.386C50.0291 99.8982 48.9758 96.2183 48.1246 92.3809ZM128.116 92.3809C127.265 96.2183 126.211 99.8982 124.974 103.386C123.717 107.441 121.853 111.558 119.436 115.643C117.124 119.732 114.514 123.368 111.659 126.457C109.253 129.278 106.588 132.035 103.685 134.696C116.709 141.581 129.501 144.463 139.518 144.178C150.676 143.86 155.388 139.988 156.969 137.25C158.55 134.512 159.547 128.494 154.244 118.673C149.482 109.856 140.59 100.217 128.116 92.3809ZM88.1207 79.3066C84.9979 79.3486 81.6388 79.6835 78.1129 80.332C72.5206 81.7316 69.7707 84.2835 68.6354 86.25C67.5002 88.2162 66.6656 91.8727 68.2486 97.4141C69.4542 100.804 70.85 103.89 72.3815 106.623C73.9761 109.298 75.9401 112.029 78.2565 114.749C82.2651 118.893 85.8498 120 88.1207 120C90.3916 120 93.9755 118.893 97.984 114.749C100.301 112.029 102.265 109.298 103.86 106.623C105.391 103.89 106.786 100.804 107.992 97.4141C109.575 91.8725 108.741 88.2162 107.606 86.25C106.471 84.2834 103.72 81.7316 98.1276 80.332C94.602 79.6836 91.2433 79.3486 88.1207 79.3066ZM88.1207 18C84.9586 18 79.2491 20.1454 73.3951 29.6494C68.14 38.1813 64.2401 50.7006 63.6901 65.4209C67.442 64.2384 71.1587 63.3102 74.8004 62.6377C78.9224 61.7044 83.3989 61.2611 88.1207 61.3076C92.8422 61.2611 97.3184 61.7045 101.44 62.6377C105.082 63.3101 108.798 64.2384 112.55 65.4209C112 50.7006 108.101 38.1813 102.846 29.6494C96.9923 20.1454 91.2828 18 88.1207 18Z" fill="black"/>
</svg>
